<?xml version="1.0" encoding="UTF-8"?>
<svg id="Ebene_2" data-name="Ebene 2" xmlns="http://www.w3.org/2000/svg" viewBox="0 0 278.33 68.21">
  <defs>
    <style>
      .cls-1 {
        fill: #f7a823;
      }

      .cls-1, .cls-2 {
        stroke: #949494;
        stroke-miterlimit: 10;
      }

      .cls-2 {
        fill: #d0d0d0;
      }
    </style>
  </defs>
  <g id="LOGO">
    <g>
      <rect class="cls-2" x="129.01" y="16.48" width="10.56" height="42.28"/>
      <polygon class="cls-2" points="277.39 67.71 256.06 35.99 269.16 16.48 258.6 16.48 250.78 28.13 242.94 16.48 232.38 16.48 245.5 35.99 230.2 58.76 240.76 58.76 250.78 43.85 266.83 67.71 277.39 67.71"/>
      <polygon class="cls-2" points="182.81 16.48 172.25 16.48 172.25 39.75 158.27 16.48 147.7 16.48 147.7 58.76 158.27 58.76 158.27 35.64 172.25 58.76 182.81 58.76 182.81 16.48"/>
      <polygon class="cls-1" points="25.9 58.76 41.17 16.48 30.61 16.48 20.94 43.24 11.28 16.48 .71 16.48 15.98 58.76 25.9 58.76"/>
      <path class="cls-1" d="M68.02,58.76h10.56l-15.27-42.28h-9.92l-15.27,42.28h10.56s3.49-9.65,3.49-9.65h12.36l3.49,9.65ZM55.1,41.01l3.25-9.01,3.25,9.01h-6.51Z"/>
      <polygon class="cls-2" points="31.25 .5 21.27 29.23 11.28 .5 31.25 .5"/>
      <path class="cls-2" d="M209.2,16.62c-11.6,0-21,9.4-21,21s9.4,21,21,21,21-9.4,21-21-9.4-21-21-21ZM209.2,49.75c-6.7,0-12.14-5.43-12.14-12.14s5.43-12.14,12.14-12.14,12.14,5.43,12.14,12.14-5.43,12.14-12.14,12.14Z"/>
      <path class="cls-1" d="M111.87,40.29c5.06-1.09,8.72-5.53,8.72-10.84v-1.86c0-6.13-4.97-11.11-11.11-11.11h-24.02v42.28h9.71v-16.84h4.42c.8,0,1.56.39,2.01,1.06l10.92,15.79h12.13s-9.14-14.78-12.77-18.47ZM106.64,33.69h-11.47v-8.41h11.47c2.32,0,4.2,1.88,4.2,4.2s-1.88,4.2-4.2,4.2Z"/>
    </g>
  </g>
</svg>